<svg id="Layer_1" data-name="Layer 1" xmlns="http://www.w3.org/2000/svg" xmlns:xlink="http://www.w3.org/1999/xlink" viewBox="0 0 70 70"><defs><style>.cls-1{fill:url(#linear-gradient);}.cls-2{fill:url(#linear-gradient-2);}</style><linearGradient id="linear-gradient" x1="26.57" y1="35" x2="65.46" y2="35" gradientUnits="userSpaceOnUse"><stop offset="0" stop-color="#8cc540"/><stop offset="1" stop-color="#38b34a"/></linearGradient><linearGradient id="linear-gradient-2" x1="-684.44" y1="41.88" x2="-664.92" y2="41.88" gradientTransform="matrix(-1, 0, 0, 1, -660.39, 0)" xlink:href="#linear-gradient"/></defs><path class="cls-1" d="M29,57.06c-4.17-11.55-2.21-17.6.2-21,3.73-5.18,9.43-5.24,17.41-11.27a45,45,0,0,0,12.15-14,29.42,29.42,0,0,1,6.69,17.76A24.32,24.32,0,0,1,62,42.4c-4.09,6.5-10.63,9.43-18.43,12.94a76.88,76.88,0,0,1-10.66,3.87,18.63,18.63,0,0,1,2.63-8.69A20.61,20.61,0,0,1,41.66,44a22.29,22.29,0,0,0-8,5.26A20.08,20.08,0,0,0,29,57.06Z"/><path class="cls-2" d="M22.84,52.94c2.09-5.79,1.11-8.83-.11-10.51C20.86,39.83,18,39.8,14,36.77a22.71,22.71,0,0,1-6.1-7,14.75,14.75,0,0,0-3.36,8.91,12.28,12.28,0,0,0,1.76,7c2.05,3.26,5.33,4.73,9.25,6.49A38,38,0,0,0,20.9,54a9.4,9.4,0,0,0-1.32-4.36,10.48,10.48,0,0,0-3.1-3.26,11.22,11.22,0,0,1,4,2.64A10.18,10.18,0,0,1,22.84,52.94Z"/></svg>