<svg width="181" height="51" viewBox="0 0 181 51" fill="none" xmlns="http://www.w3.org/2000/svg">
<path d="M20.4324 49.3595H17.5128L17.0152 50.2221H16.4844L18.6077 46.5063H19.2712L21.3945 50.2221H20.8968L20.4324 49.3595ZM20.2001 48.9614L18.9726 46.7718L17.7451 48.9614H20.2001Z" fill="black"/>
<path d="M32.6413 47.6675C32.6413 47.4684 32.6081 47.3357 32.5749 47.203C32.5417 47.1035 32.4754 47.0039 32.3758 46.9376C32.2763 46.8712 32.1436 46.8381 31.9777 46.8381C31.8119 46.8381 31.6128 46.8049 31.3806 46.8049H30.3189C30.1199 46.8049 29.954 46.8049 29.7881 46.8381C29.6554 46.8381 29.5227 46.8712 29.4232 46.9044C29.3236 46.9376 29.2573 47.0039 29.2241 47.0703C29.1577 47.1366 29.1246 47.2362 29.1246 47.3357C29.0914 47.4352 29.0914 47.6011 29.0914 47.767C29.0914 47.9329 29.0914 48.1319 29.0914 48.3642C29.0914 48.5964 29.0914 48.7955 29.0914 48.9613C29.0914 49.1272 29.1246 49.2599 29.1246 49.3926C29.1577 49.4922 29.1909 49.5917 29.2241 49.658C29.2573 49.7244 29.3568 49.7907 29.4232 49.8239C29.5227 49.8571 29.6222 49.8903 29.7881 49.8903C29.9208 49.8903 30.1199 49.9234 30.3189 49.9234H31.4137C31.5796 49.9234 31.7455 49.9234 31.8782 49.9234C32.0109 49.9234 32.1104 49.8903 32.21 49.8571C32.3095 49.8239 32.3758 49.7907 32.4422 49.7576C32.5086 49.7244 32.5417 49.658 32.5749 49.5917C32.6081 49.5253 32.6413 49.4258 32.6413 49.3595C32.6413 49.2599 32.6744 49.1604 32.6744 49.0277H33.1389C33.1389 49.1936 33.1389 49.3263 33.1057 49.459C33.0725 49.5917 33.0394 49.6912 33.0062 49.7907C32.973 49.8903 32.9067 49.9566 32.8071 50.0562C32.7408 50.1225 32.6081 50.1889 32.5086 50.222C32.3758 50.2552 32.2431 50.2884 32.0441 50.3216C31.8782 50.3547 31.6791 50.3547 31.4469 50.3547H30.3189C30.0203 50.3547 29.7881 50.3216 29.589 50.2884C29.39 50.2552 29.2241 50.1889 29.1246 50.1225C28.9919 50.0562 28.8923 49.9566 28.826 49.8571C28.7596 49.7576 28.6933 49.6249 28.6601 49.4922C28.6269 49.3594 28.6269 49.1936 28.5938 48.9945C28.5938 48.8286 28.5938 48.6296 28.5938 48.3973C28.5938 48.1651 28.5938 47.9661 28.5938 47.8002C28.5938 47.6343 28.6269 47.4684 28.6601 47.3025C28.6933 47.1698 28.7265 47.0371 28.826 46.9376C28.8923 46.8381 28.9919 46.7385 29.1246 46.6722C29.2573 46.6058 29.4232 46.5395 29.589 46.5063C29.7881 46.4731 30.0203 46.4399 30.3189 46.4399H31.4137C31.646 46.4399 31.845 46.4399 32.0109 46.4731C32.1768 46.5063 32.3427 46.5395 32.4754 46.5726C32.6081 46.6058 32.7076 46.6722 32.774 46.7385C32.8403 46.8049 32.9067 46.8712 32.973 46.9708C33.0062 47.0703 33.0726 47.1698 33.0726 47.2693C33.1057 47.4021 33.1057 47.5016 33.1057 47.6675H32.6413Z" fill="black"/>
<path d="M37.2826 46.4067C37.5812 46.4067 37.8135 46.4399 38.0125 46.4731C38.2116 46.5063 38.3775 46.5726 38.477 46.639C38.6097 46.7053 38.7092 46.8049 38.7756 46.9044C38.8419 47.0039 38.9083 47.1366 38.9083 47.2693C38.9414 47.402 38.9746 47.5679 38.9746 47.767C38.9746 47.9328 38.9746 48.1319 38.9746 48.3641C38.9746 48.5964 38.9746 48.7954 38.9746 48.9613C38.9746 49.1272 38.9414 49.2931 38.9083 49.459C38.8751 49.5917 38.8419 49.7244 38.7756 49.8239C38.7092 49.9234 38.6097 50.0229 38.477 50.0893C38.3443 50.1556 38.1784 50.222 38.0125 50.2552C37.8135 50.2884 37.5812 50.3215 37.2826 50.3215H35.8892C35.5906 50.3215 35.3584 50.2884 35.1594 50.2552C34.9603 50.222 34.7944 50.1556 34.6949 50.0893C34.5622 50.0229 34.4627 49.9234 34.3963 49.8239C34.3299 49.7244 34.2636 49.5917 34.2304 49.459C34.1972 49.3262 34.1972 49.1604 34.1641 48.9613C34.1641 48.7954 34.1641 48.5964 34.1641 48.3641C34.1641 48.1319 34.1641 47.9328 34.1641 47.767C34.1641 47.6011 34.1972 47.4352 34.2304 47.2693C34.2636 47.1366 34.2968 47.0039 34.3963 46.9044C34.4627 46.8049 34.5622 46.7053 34.6949 46.639C34.8276 46.5726 34.9935 46.5063 35.1594 46.4731C35.3584 46.4399 35.5906 46.4067 35.8892 46.4067H37.2826ZM37.2826 49.8902C37.4817 49.8902 37.6476 49.8902 37.8135 49.8571C37.9462 49.8571 38.0789 49.8239 38.1784 49.7907C38.2779 49.7575 38.3443 49.6912 38.3775 49.6248C38.4438 49.5585 38.477 49.4589 38.477 49.3594C38.5102 49.2599 38.5102 49.094 38.5102 48.9281C38.5102 48.7622 38.5102 48.5632 38.5102 48.331C38.5102 48.0987 38.5102 47.8997 38.5102 47.7338C38.5102 47.5679 38.477 47.4352 38.477 47.3025C38.4438 47.203 38.4106 47.1034 38.3775 47.0371C38.3111 46.9707 38.2447 46.9044 38.1784 46.8712C38.0789 46.838 37.9793 46.8049 37.8135 46.8049C37.6808 46.8049 37.4817 46.7717 37.2826 46.7717H35.8892C35.6902 46.7717 35.5243 46.7717 35.3584 46.8049C35.2257 46.8049 35.093 46.838 34.9935 46.8712C34.8939 46.9044 34.8276 46.9707 34.7944 47.0371C34.7281 47.1034 34.6949 47.203 34.6949 47.3025C34.6617 47.402 34.6617 47.5679 34.6617 47.7338C34.6617 47.8997 34.6617 48.0987 34.6617 48.331C34.6617 48.5632 34.6617 48.7622 34.6617 48.9281C34.6617 49.094 34.6949 49.2267 34.6949 49.3594C34.7281 49.4589 34.7612 49.5585 34.7944 49.6248C34.8276 49.6912 34.9271 49.7575 34.9935 49.7907C35.093 49.8239 35.1925 49.8571 35.3584 49.8571C35.4911 49.8571 35.6902 49.8902 35.8892 49.8902H37.2826Z" fill="black"/>
<path d="M40.7067 46.8049V50.2221H40.2422V46.5063H41.0052L43.1617 49.7576L45.3182 46.5063H46.0812V50.2221H45.6168V46.8713L43.3939 50.2221H42.9295L40.7067 46.8049Z" fill="black"/>
<path d="M47.5039 46.5063H50.2907C50.5229 46.5063 50.722 46.5063 50.8878 46.5395C51.0537 46.5727 51.1864 46.6059 51.2859 46.6391C51.3855 46.6722 51.485 46.7386 51.5182 46.8049C51.5845 46.8713 51.6177 46.9376 51.6509 47.004C51.6841 47.0703 51.6841 47.1699 51.6841 47.2694C51.6841 47.3689 51.6841 47.4685 51.6841 47.6012C51.6841 47.7339 51.6841 47.8334 51.6841 47.9661C51.6841 48.0656 51.6509 48.1652 51.6177 48.2647C51.5845 48.3642 51.5514 48.4306 51.4518 48.4969C51.3855 48.5633 51.2859 48.6296 51.1532 48.6628C51.0205 48.696 50.8547 48.7292 50.6556 48.7623C50.4565 48.7955 50.2243 48.7955 49.9257 48.7955H47.902V50.2553H47.4375V46.5063H47.5039ZM47.9683 48.3642H49.9921C50.1911 48.3642 50.357 48.3642 50.5229 48.3642C50.6556 48.3642 50.7883 48.331 50.8878 48.331C50.9874 48.2979 51.0537 48.2979 51.0869 48.2647C51.1532 48.2315 51.1864 48.1983 51.1864 48.132C51.2196 48.0656 51.2196 47.9993 51.2196 47.9329C51.2196 47.8666 51.2196 47.767 51.2196 47.6343C51.2196 47.5348 51.2196 47.4353 51.2196 47.3689C51.2196 47.3026 51.1864 47.2362 51.1864 47.1699C51.1532 47.1035 51.1201 47.0703 51.0869 47.0372C51.0205 47.004 50.9542 46.9708 50.8878 46.9708C50.7883 46.9376 50.6888 46.9376 50.5229 46.9376C50.3902 46.9376 50.1911 46.9376 49.9921 46.9376H47.9683V48.3642Z" fill="black"/>
<path d="M52.7812 50.2221V46.5063H53.2457V49.824H56.1984V50.2221H52.7812Z" fill="black"/>
<path d="M57.2891 50.2221V46.5063H61.0048V46.9045H57.7535V48.132H60.8389V48.5301H57.7535V49.8571H61.0048V50.2553H57.2891V50.2221Z" fill="black"/>
<path d="M66.1177 46.5063V46.9045H64.2598V50.2221H63.7954V46.9045H61.9375V46.5063H66.1177Z" fill="black"/>
<path d="M67.375 50.2221V46.5063H71.0907V46.9045H67.8395V48.132H70.9249V48.5301H67.8395V49.8571H71.0907V50.2553H67.375V50.2221Z" fill="black"/>
<path d="M80.7441 48.1319C81.0095 48.1319 81.2086 48.1319 81.4076 48.1651C81.6067 48.1983 81.7394 48.2315 81.8721 48.2646C82.0048 48.2978 82.1043 48.3642 82.1707 48.4305C82.237 48.4969 82.3034 48.5632 82.3366 48.6296C82.3697 48.6959 82.4029 48.7955 82.4029 48.895C82.4029 48.9945 82.4361 49.094 82.4361 49.2267C82.4361 49.3263 82.4361 49.459 82.4029 49.5585C82.3697 49.658 82.3366 49.7576 82.3034 49.8239C82.237 49.8903 82.1707 49.9898 82.1043 50.0562C82.0048 50.1225 81.9053 50.1889 81.7726 50.222C81.6399 50.2552 81.474 50.2884 81.2749 50.3216C81.0759 50.3547 80.8436 50.3547 80.6114 50.3547H79.9811C79.7488 50.3547 79.5498 50.3547 79.3839 50.3216C79.218 50.2884 79.0521 50.2884 78.9194 50.2552C78.7867 50.222 78.6872 50.1889 78.6208 50.1225C78.5545 50.0562 78.4881 49.9898 78.4218 49.9234C78.3886 49.8571 78.3222 49.7576 78.3222 49.658C78.2891 49.5585 78.2891 49.459 78.2891 49.3263H78.7535C78.7535 49.459 78.7867 49.5917 78.8199 49.658C78.8531 49.7576 78.9194 49.7907 79.0189 49.8571C79.1185 49.8903 79.2512 49.9234 79.3839 49.9234C79.5498 49.9234 79.7488 49.9234 79.9811 49.9234H80.6114C80.8768 49.9234 81.109 49.9234 81.2749 49.8903C81.4408 49.8571 81.6067 49.8239 81.7062 49.7576C81.8057 49.6912 81.8721 49.6249 81.9385 49.5253C81.9716 49.4258 82.0048 49.3263 82.0048 49.1936C82.0048 49.0609 82.0048 48.9613 81.9716 48.8618C81.9385 48.7623 81.8721 48.6959 81.8058 48.6627C81.7062 48.5964 81.6067 48.5632 81.4408 48.5632C81.2749 48.53 81.0759 48.53 80.8105 48.53H80.1801C79.8815 48.53 79.6493 48.53 79.4502 48.4969C79.2512 48.4637 79.0853 48.4305 78.9526 48.3973C78.8199 48.3642 78.7204 48.2978 78.6208 48.2646C78.5545 48.1983 78.4881 48.1319 78.4218 48.0656C78.3886 47.9992 78.3554 47.8997 78.3222 47.8002C78.3222 47.7006 78.2891 47.6011 78.2891 47.5016C78.2891 47.4021 78.2891 47.2693 78.3222 47.203C78.3554 47.1035 78.3886 47.0039 78.4218 46.9376C78.4881 46.8712 78.5545 46.8049 78.654 46.7385C78.7535 46.6722 78.8862 46.639 79.0189 46.5726C79.1848 46.5395 79.3507 46.5063 79.5498 46.4731C79.7488 46.4399 80.0142 46.4399 80.2796 46.4399H80.7441C80.9763 46.4399 81.1754 46.4399 81.3413 46.4731C81.5072 46.5063 81.673 46.5063 81.8058 46.5395C81.9385 46.5726 82.038 46.6058 82.1043 46.6722C82.2039 46.7385 82.2702 46.8049 82.3034 46.8712C82.3366 46.9376 82.4029 47.0371 82.4029 47.1366C82.4361 47.2362 82.4361 47.3357 82.4361 47.4684H81.9716C81.9716 47.3357 81.9385 47.203 81.9053 47.1366C81.8721 47.0703 81.8057 47.0039 81.7062 46.9376C81.6067 46.9044 81.474 46.8712 81.3081 46.8712C81.1422 46.8712 80.9432 46.8712 80.7109 46.8712H80.2465C79.9479 46.8712 79.6825 46.8712 79.4834 46.9044C79.2843 46.9376 79.1185 46.9708 79.0189 47.0039C78.8862 47.0703 78.8199 47.1366 78.7867 47.203C78.7535 47.3025 78.7204 47.4021 78.7204 47.5348C78.7204 47.6011 78.7204 47.7006 78.7535 47.7338C78.7535 47.8002 78.7867 47.8665 78.8199 47.8997C78.8531 47.9329 78.9194 47.9992 78.9526 48.0324C79.0189 48.0656 79.0853 48.0988 79.218 48.0988C79.3175 48.1319 79.4502 48.1319 79.5829 48.1319C79.7156 48.1319 79.9147 48.1319 80.1138 48.1319H80.7441Z" fill="black"/>
<path d="M87.5848 46.5063H88.0492V50.2221H87.5848V48.5301H84.1676V50.2221H83.7031V46.5063H84.1676V48.132H87.5848V46.5063Z" fill="black"/>
<path d="M92.392 46.4067C92.6906 46.4067 92.9228 46.4399 93.1219 46.4731C93.3209 46.5063 93.4868 46.5726 93.5864 46.639C93.7191 46.7053 93.8186 46.8049 93.8849 46.9044C93.9513 47.0039 94.0176 47.1366 94.0176 47.2693C94.0508 47.402 94.084 47.5679 94.084 47.767C94.084 47.9328 94.084 48.1319 94.084 48.3641C94.084 48.5964 94.084 48.7954 94.084 48.9613C94.084 49.1272 94.0508 49.2931 94.0176 49.459C93.9845 49.5917 93.9513 49.7244 93.8849 49.8239C93.8186 49.9234 93.7191 50.0229 93.5864 50.0893C93.4537 50.1556 93.2878 50.222 93.1219 50.2552C92.9228 50.2884 92.6906 50.3215 92.392 50.3215H90.9986C90.7 50.3215 90.4678 50.2884 90.2687 50.2552C90.0697 50.222 89.9038 50.1556 89.8043 50.0893C89.6715 50.0229 89.572 49.9234 89.5057 49.8239C89.4393 49.7244 89.373 49.5917 89.3398 49.459C89.3066 49.3262 89.3066 49.1604 89.2734 48.9613C89.2734 48.7954 89.2734 48.5964 89.2734 48.3641C89.2734 48.1319 89.2734 47.9328 89.2734 47.767C89.2734 47.6011 89.3066 47.4352 89.3398 47.2693C89.373 47.1366 89.4061 47.0039 89.5057 46.9044C89.572 46.8049 89.6715 46.7053 89.8043 46.639C89.937 46.5726 90.1028 46.5063 90.2687 46.4731C90.4678 46.4399 90.7 46.4067 90.9986 46.4067H92.392ZM92.392 49.8902C92.5911 49.8902 92.7569 49.8902 92.9228 49.8571C93.0555 49.8571 93.1882 49.8239 93.2878 49.7907C93.3873 49.7575 93.4536 49.6912 93.4868 49.6248C93.5532 49.5585 93.5864 49.4589 93.5864 49.3594C93.6195 49.2599 93.6195 49.094 93.6195 48.9281C93.6195 48.7622 93.6195 48.5632 93.6195 48.331C93.6195 48.0987 93.6195 47.8997 93.6195 47.7338C93.6195 47.5679 93.5864 47.4352 93.5864 47.3025C93.5532 47.203 93.52 47.1034 93.4868 47.0371C93.4205 46.9707 93.3541 46.9044 93.2878 46.8712C93.1882 46.838 93.0887 46.8049 92.9228 46.8049C92.7901 46.8049 92.5911 46.7717 92.392 46.7717H90.9986C90.7995 46.7717 90.6337 46.7717 90.4678 46.8049C90.3351 46.8049 90.2024 46.838 90.1028 46.8712C90.0033 46.9044 89.937 46.9707 89.9038 47.0371C89.8374 47.1034 89.8043 47.203 89.8043 47.3025C89.7711 47.402 89.7711 47.5679 89.7711 47.7338C89.7711 47.8997 89.7711 48.0987 89.7711 48.331C89.7711 48.5632 89.7711 48.7622 89.7711 48.9281C89.7711 49.094 89.8043 49.2267 89.8043 49.3594C89.8374 49.4589 89.8706 49.5585 89.9038 49.6248C89.937 49.6912 90.0365 49.7575 90.1028 49.7907C90.2024 49.8239 90.3019 49.8571 90.4678 49.8571C90.6005 49.8571 90.7995 49.8902 90.9986 49.8902H92.392Z" fill="black"/>
<path d="M95.3438 46.5063H98.1306C98.3628 46.5063 98.5619 46.5063 98.7277 46.5395C98.8936 46.5727 99.0263 46.6059 99.1258 46.6391C99.2254 46.6722 99.3249 46.7386 99.3581 46.8049C99.4244 46.8713 99.4576 46.9376 99.4908 47.004C99.524 47.0703 99.524 47.1699 99.524 47.2694C99.524 47.3689 99.524 47.4685 99.524 47.6012C99.524 47.7339 99.524 47.8334 99.524 47.9661C99.524 48.0656 99.4908 48.1652 99.4576 48.2647C99.4244 48.3642 99.3913 48.4306 99.2917 48.4969C99.2254 48.5633 99.1258 48.6296 98.9931 48.6628C98.8604 48.696 98.6946 48.7292 98.4955 48.7623C98.2964 48.7955 98.0642 48.7955 97.7656 48.7955H95.7419V50.2553H95.3438V46.5063ZM95.8082 48.3642H97.832C98.031 48.3642 98.1969 48.3642 98.3628 48.3642C98.4955 48.3642 98.6282 48.331 98.7277 48.331C98.8273 48.2979 98.8936 48.2979 98.9268 48.2647C98.9931 48.2315 99.0263 48.1983 99.0263 48.132C99.0595 48.0656 99.0595 47.9993 99.0595 47.9329C99.0595 47.8666 99.0595 47.767 99.0595 47.6343C99.0595 47.5348 99.0595 47.4353 99.0595 47.3689C99.0595 47.3026 99.0263 47.2362 99.0263 47.1699C98.9931 47.1035 98.96 47.0703 98.9268 47.0372C98.8604 47.004 98.7941 46.9708 98.7277 46.9708C98.6282 46.9376 98.5287 46.9376 98.3628 46.9376C98.2301 46.9376 98.031 46.9376 97.832 46.9376H95.8082V48.3642Z" fill="black"/>
<path d="M100.621 46.5063H103.408C103.64 46.5063 103.839 46.5063 104.005 46.5395C104.171 46.5727 104.304 46.6059 104.403 46.6391C104.503 46.6722 104.602 46.7386 104.635 46.8049C104.702 46.8713 104.735 46.9376 104.768 47.004C104.801 47.0703 104.801 47.1699 104.801 47.2694C104.801 47.3689 104.801 47.4685 104.801 47.6012C104.801 47.7339 104.801 47.8334 104.801 47.9661C104.801 48.0656 104.768 48.1652 104.735 48.2647C104.702 48.3642 104.669 48.4306 104.569 48.4969C104.503 48.5633 104.403 48.6296 104.27 48.6628C104.138 48.696 103.972 48.7292 103.773 48.7623C103.574 48.7955 103.341 48.7955 103.043 48.7955H101.019V50.2553H100.555V46.5063H100.621ZM101.086 48.3642H103.109C103.308 48.3642 103.474 48.3642 103.64 48.3642C103.773 48.3642 103.905 48.331 104.005 48.331C104.105 48.2979 104.171 48.2979 104.204 48.2647C104.27 48.2315 104.304 48.1983 104.304 48.132C104.337 48.0656 104.337 47.9993 104.337 47.9329C104.337 47.8666 104.337 47.767 104.337 47.6343C104.337 47.5348 104.337 47.4353 104.337 47.3689C104.337 47.3026 104.304 47.2362 104.304 47.1699C104.27 47.1035 104.237 47.0703 104.204 47.0372C104.138 47.004 104.071 46.9708 104.005 46.9708C103.905 46.9376 103.806 46.9376 103.64 46.9376C103.507 46.9376 103.308 46.9376 103.109 46.9376H101.086V48.3642Z" fill="black"/>
<path d="M105.891 46.5063H106.355V50.2221H105.891V46.5063Z" fill="black"/>
<path d="M108.214 50.2221H107.75V46.5063H108.579L111.997 49.7576V46.5063H112.461V50.2221H111.831L108.214 46.9045V50.2221Z" fill="black"/>
<path d="M117.87 47.6674C117.87 47.4684 117.836 47.3357 117.803 47.203C117.77 47.1034 117.704 47.0039 117.604 46.9376C117.505 46.8712 117.372 46.838 117.206 46.838C117.04 46.838 116.841 46.8049 116.609 46.8049H115.348C115.149 46.8049 114.983 46.8048 114.817 46.838C114.685 46.838 114.552 46.8712 114.452 46.9044C114.353 46.9376 114.287 47.0039 114.253 47.0703C114.187 47.1366 114.154 47.2361 114.154 47.3357C114.121 47.4352 114.121 47.6011 114.121 47.767C114.121 47.9328 114.121 48.1319 114.121 48.3641C114.121 48.5964 114.121 48.7954 114.121 48.9613C114.121 49.1272 114.154 49.2599 114.154 49.3926C114.187 49.4921 114.22 49.5917 114.253 49.658C114.287 49.7244 114.386 49.7907 114.452 49.8239C114.552 49.8571 114.652 49.8902 114.817 49.8902C114.95 49.8902 115.149 49.9234 115.348 49.9234H116.609C116.775 49.9234 116.941 49.9234 117.073 49.9234C117.206 49.9234 117.306 49.8902 117.405 49.8571C117.505 49.8239 117.571 49.7907 117.637 49.7575C117.704 49.7244 117.737 49.658 117.77 49.5917C117.803 49.5253 117.836 49.4258 117.836 49.3594C117.836 49.2599 117.87 49.1604 117.87 49.0277V48.7954H116.012V48.3641H118.334V48.9945C118.334 49.1604 118.334 49.2931 118.301 49.4258C118.268 49.5585 118.235 49.658 118.201 49.7575C118.168 49.8571 118.102 49.9234 118.002 50.0229C117.936 50.0893 117.803 50.1557 117.704 50.1888C117.571 50.222 117.438 50.2552 117.239 50.2884C117.073 50.3215 116.874 50.3215 116.642 50.3215H115.381C115.083 50.3215 114.851 50.2884 114.652 50.2552C114.452 50.222 114.287 50.1556 114.187 50.0893C114.054 50.0229 113.955 49.9234 113.888 49.8239C113.822 49.7244 113.756 49.5917 113.723 49.459C113.689 49.3262 113.689 49.1604 113.656 48.9613C113.656 48.7954 113.656 48.5964 113.656 48.3641C113.656 48.1319 113.656 47.9328 113.656 47.767C113.656 47.6011 113.689 47.4352 113.723 47.2693C113.756 47.1366 113.789 47.0039 113.888 46.9044C113.955 46.8049 114.054 46.7053 114.187 46.639C114.32 46.5726 114.486 46.5063 114.652 46.4731C114.851 46.4399 115.083 46.4067 115.381 46.4067H116.642C116.874 46.4067 117.073 46.4067 117.239 46.4399C117.405 46.4731 117.571 46.5063 117.704 46.5394C117.836 46.5726 117.936 46.639 118.002 46.7053C118.069 46.7717 118.168 46.838 118.201 46.9376C118.235 47.0371 118.301 47.1366 118.301 47.2361C118.334 47.3688 118.334 47.4684 118.334 47.6343H117.87V47.6674Z" fill="black"/>
<path d="M128.154 48.1319C128.42 48.1319 128.619 48.1319 128.818 48.1651C129.017 48.1983 129.15 48.2315 129.282 48.2646C129.415 48.2978 129.514 48.3642 129.581 48.4305C129.647 48.4969 129.714 48.5632 129.747 48.6296C129.78 48.6959 129.813 48.7955 129.813 48.895C129.813 48.9945 129.846 49.094 129.846 49.2267C129.846 49.3263 129.846 49.459 129.813 49.5585C129.78 49.658 129.747 49.7576 129.714 49.8239C129.647 49.8903 129.581 49.9898 129.514 50.0562C129.415 50.1225 129.315 50.1889 129.183 50.222C129.05 50.2552 128.884 50.2884 128.685 50.3216C128.486 50.3547 128.254 50.3547 128.022 50.3547H127.391C127.159 50.3547 126.96 50.3547 126.794 50.3216C126.628 50.2884 126.462 50.2884 126.33 50.2552C126.197 50.222 126.097 50.1889 126.031 50.1225C125.965 50.0562 125.898 49.9898 125.832 49.9234C125.766 49.8571 125.732 49.7576 125.732 49.658C125.699 49.5585 125.699 49.459 125.699 49.3263H126.164C126.164 49.459 126.197 49.5917 126.23 49.658C126.263 49.7576 126.33 49.7907 126.429 49.8571C126.529 49.8903 126.661 49.9234 126.827 49.9234C126.993 49.9234 127.192 49.9234 127.424 49.9234H128.055C128.32 49.9234 128.552 49.9234 128.718 49.8903C128.884 49.8571 129.05 49.8239 129.15 49.7576C129.249 49.6912 129.315 49.6249 129.382 49.5253C129.415 49.4258 129.448 49.3263 129.448 49.1936C129.448 49.0609 129.448 48.9613 129.415 48.8618C129.382 48.7623 129.315 48.6959 129.249 48.6627C129.15 48.5964 129.05 48.5632 128.884 48.5632C128.718 48.5632 128.519 48.53 128.254 48.53H127.524C127.225 48.53 126.993 48.53 126.794 48.4969C126.595 48.4637 126.429 48.4305 126.296 48.3973C126.164 48.3642 126.064 48.2978 125.965 48.2646C125.898 48.1983 125.832 48.1319 125.766 48.0656C125.732 47.9992 125.699 47.8997 125.666 47.8002C125.633 47.7006 125.633 47.6011 125.633 47.5016C125.633 47.4021 125.633 47.2693 125.666 47.203C125.699 47.1035 125.732 47.0039 125.766 46.9376C125.832 46.8712 125.898 46.8049 125.998 46.7385C126.097 46.6722 126.23 46.639 126.363 46.5726C126.529 46.5395 126.694 46.5063 126.894 46.4731C127.093 46.4399 127.358 46.4399 127.623 46.4399H128.088C128.32 46.4399 128.519 46.4399 128.685 46.4731C128.851 46.5063 129.017 46.5063 129.15 46.5395C129.282 46.5726 129.382 46.6058 129.448 46.6722C129.548 46.7385 129.581 46.8049 129.647 46.8712C129.68 46.9376 129.747 47.0371 129.747 47.1366C129.78 47.2362 129.78 47.3357 129.78 47.4684H129.315C129.315 47.3357 129.282 47.203 129.249 47.1366C129.216 47.0703 129.15 47.0039 129.05 46.9376C128.95 46.9044 128.818 46.8712 128.652 46.8712C128.486 46.8712 128.287 46.8712 128.055 46.8712H127.59C127.292 46.8712 127.026 46.8712 126.827 46.9044C126.628 46.9376 126.462 46.9708 126.363 47.0039C126.263 47.0371 126.164 47.1366 126.13 47.203C126.097 47.3025 126.064 47.4021 126.064 47.5348C126.064 47.6011 126.064 47.7006 126.097 47.7338C126.097 47.8002 126.13 47.8665 126.164 47.8997C126.197 47.9329 126.263 47.9992 126.296 48.0324C126.363 48.0656 126.429 48.0988 126.562 48.0988C126.661 48.1319 126.794 48.1319 126.927 48.1319C127.059 48.1319 127.258 48.1319 127.458 48.1319H128.154Z" fill="black"/>
<path d="M134.064 46.4067C134.362 46.4067 134.595 46.4399 134.794 46.4731C134.993 46.5063 135.159 46.5726 135.258 46.639C135.391 46.7053 135.49 46.8049 135.557 46.9044C135.623 47.0039 135.69 47.1366 135.69 47.2693C135.723 47.402 135.756 47.5679 135.756 47.767C135.756 47.9328 135.756 48.1319 135.756 48.3641C135.756 48.5964 135.756 48.7954 135.756 48.9613C135.756 49.1272 135.723 49.2931 135.69 49.459C135.656 49.5917 135.623 49.7244 135.557 49.8239C135.49 49.9234 135.391 50.0229 135.258 50.0893C135.126 50.1556 134.96 50.222 134.794 50.2552C134.595 50.2884 134.362 50.3215 134.064 50.3215H132.67C132.372 50.3215 132.14 50.2884 131.941 50.2552C131.742 50.222 131.576 50.1556 131.476 50.0893C131.343 50.0229 131.244 49.9234 131.178 49.8239C131.111 49.7244 131.045 49.5917 131.012 49.459C130.978 49.3262 130.978 49.1604 130.945 48.9613C130.945 48.7954 130.945 48.5964 130.945 48.3641C130.945 48.1319 130.945 47.9328 130.945 47.767C130.945 47.6011 130.978 47.4352 131.012 47.2693C131.045 47.1366 131.078 47.0039 131.178 46.9044C131.244 46.8049 131.343 46.7053 131.476 46.639C131.609 46.5726 131.775 46.5063 131.941 46.4731C132.14 46.4399 132.372 46.4067 132.67 46.4067H134.064ZM134.064 49.8902C134.263 49.8902 134.429 49.8902 134.595 49.8571C134.727 49.8571 134.86 49.8239 134.96 49.7907C135.059 49.7575 135.126 49.6912 135.159 49.6248C135.225 49.5585 135.258 49.4589 135.258 49.3594C135.291 49.2599 135.291 49.094 135.291 48.9281C135.291 48.7622 135.291 48.5632 135.291 48.331C135.291 48.0987 135.291 47.8997 135.291 47.7338C135.291 47.5679 135.258 47.4352 135.258 47.3025C135.225 47.203 135.192 47.1034 135.159 47.0371C135.092 46.9707 135.026 46.9044 134.96 46.8712C134.893 46.838 134.761 46.8049 134.595 46.8049C134.462 46.8049 134.263 46.7717 134.064 46.7717H132.67C132.471 46.7717 132.306 46.7717 132.14 46.8049C132.007 46.8049 131.874 46.838 131.775 46.8712C131.675 46.9044 131.609 46.9707 131.576 47.0371C131.509 47.1034 131.476 47.203 131.476 47.3025C131.443 47.402 131.443 47.5679 131.443 47.7338C131.443 47.8997 131.443 48.0987 131.443 48.331C131.443 48.5632 131.443 48.7622 131.443 48.9281C131.443 49.094 131.476 49.2267 131.476 49.3594C131.509 49.4589 131.542 49.5585 131.576 49.6248C131.609 49.6912 131.708 49.7575 131.775 49.7907C131.874 49.8239 131.974 49.8571 132.14 49.8571C132.272 49.8571 132.471 49.8902 132.67 49.8902H134.064Z" fill="black"/>
<path d="M137.016 50.2221V46.5063H137.48V49.824H140.433V50.2221H137.016Z" fill="black"/>
<path d="M145.84 46.5063V48.3642C145.84 48.5965 145.84 48.7955 145.84 48.9614C145.84 49.1273 145.807 49.2932 145.774 49.459C145.741 49.5917 145.707 49.7244 145.641 49.824C145.575 49.9235 145.475 50.023 145.342 50.0894C145.21 50.1557 145.044 50.2221 144.878 50.2553C144.679 50.2884 144.447 50.3216 144.148 50.3216H143.053C142.755 50.3216 142.522 50.2884 142.323 50.2553C142.124 50.2221 141.958 50.1557 141.859 50.0894C141.726 50.023 141.627 49.9235 141.56 49.824C141.494 49.7244 141.428 49.5917 141.394 49.459C141.361 49.3263 141.361 49.1604 141.328 48.9614C141.328 48.7955 141.328 48.5965 141.328 48.3642V46.5063H141.793V48.3642C141.793 48.5965 141.793 48.7955 141.793 48.9614C141.793 49.1273 141.826 49.26 141.826 49.3927C141.859 49.4922 141.892 49.5917 141.925 49.6581C141.958 49.7244 142.058 49.7908 142.124 49.824C142.224 49.8571 142.323 49.8903 142.489 49.8903C142.622 49.8903 142.821 49.9235 143.02 49.9235H144.115C144.314 49.9235 144.48 49.9235 144.646 49.8903C144.778 49.8903 144.911 49.8571 145.011 49.824C145.11 49.7908 145.177 49.7244 145.21 49.6581C145.276 49.5917 145.309 49.4922 145.309 49.3927C145.342 49.2932 145.342 49.1273 145.342 48.9614C145.342 48.7955 145.342 48.5965 145.342 48.3642V46.5063H145.84Z" fill="black"/>
<path d="M151.118 46.5063V46.9045H149.26V50.2221H148.795V46.9045H146.938V46.5063H151.118Z" fill="black"/>
<path d="M152.375 46.5063H152.839V50.2221H152.375V46.5063Z" fill="black"/>
<path d="M157.189 46.4067C157.487 46.4067 157.72 46.4399 157.919 46.4731C158.118 46.5063 158.284 46.5726 158.383 46.639C158.516 46.7053 158.615 46.8049 158.682 46.9044C158.748 47.0039 158.815 47.1366 158.815 47.2693C158.848 47.402 158.881 47.5679 158.881 47.767C158.881 47.9328 158.881 48.1319 158.881 48.3641C158.881 48.5964 158.881 48.7954 158.881 48.9613C158.881 49.1272 158.848 49.2931 158.815 49.459C158.781 49.5917 158.748 49.7244 158.682 49.8239C158.615 49.9234 158.516 50.0229 158.383 50.0893C158.251 50.1556 158.085 50.222 157.919 50.2552C157.72 50.2884 157.487 50.3215 157.189 50.3215H155.795C155.497 50.3215 155.265 50.2884 155.066 50.2552C154.867 50.222 154.701 50.1556 154.601 50.0893C154.468 50.0229 154.369 49.9234 154.303 49.8239C154.236 49.7244 154.17 49.5917 154.137 49.459C154.103 49.3262 154.103 49.1604 154.07 48.9613C154.07 48.7954 154.07 48.5964 154.07 48.3641C154.07 48.1319 154.07 47.9328 154.07 47.767C154.07 47.6011 154.103 47.4352 154.137 47.2693C154.17 47.1366 154.203 47.0039 154.303 46.9044C154.369 46.8049 154.468 46.7053 154.601 46.639C154.734 46.5726 154.9 46.5063 155.066 46.4731C155.265 46.4399 155.497 46.4067 155.795 46.4067H157.189ZM157.189 49.8902C157.388 49.8902 157.554 49.8902 157.72 49.8571C157.852 49.8571 157.985 49.8239 158.085 49.7907C158.184 49.7575 158.251 49.6912 158.284 49.6248C158.35 49.5585 158.383 49.4589 158.383 49.3594C158.416 49.2599 158.416 49.094 158.416 48.9281C158.416 48.7622 158.416 48.5632 158.416 48.331C158.416 48.0987 158.416 47.8997 158.416 47.7338C158.416 47.5679 158.383 47.4352 158.383 47.3025C158.35 47.203 158.317 47.1034 158.284 47.0371C158.217 46.9707 158.151 46.9044 158.085 46.8712C158.018 46.838 157.886 46.8049 157.72 46.8049C157.587 46.8049 157.388 46.7717 157.189 46.7717H155.795C155.596 46.7717 155.431 46.7717 155.265 46.8049C155.132 46.8049 154.999 46.838 154.9 46.8712C154.8 46.9044 154.734 46.9707 154.701 47.0371C154.634 47.1034 154.601 47.203 154.601 47.3025C154.568 47.402 154.568 47.5679 154.568 47.7338C154.568 47.8997 154.568 48.0987 154.568 48.331C154.568 48.5632 154.568 48.7622 154.568 48.9281C154.568 49.094 154.601 49.2267 154.601 49.3594C154.634 49.4589 154.667 49.5585 154.701 49.6248C154.734 49.6912 154.833 49.7575 154.9 49.7907C154.999 49.8239 155.099 49.8571 155.265 49.8571C155.397 49.8571 155.596 49.8902 155.795 49.8902H157.189Z" fill="black"/>
<path d="M160.605 50.2221H160.141V46.5063H160.97L164.387 49.7576V46.5063H164.852V50.2221H164.221L160.605 46.9045V50.2221Z" fill="black"/>
<path d="M43.167 15.5529C42.8684 14.2259 42.4039 13.0647 41.7736 12.0694C41.11 11.041 40.1811 10.2116 39.0199 9.54803C37.8588 8.91768 36.399 8.42004 34.6407 8.12145C32.9155 7.82286 30.7922 7.65698 28.3372 7.65698H16.2942C13.8059 7.65698 11.6827 7.82286 9.99067 8.12145C8.23233 8.42004 6.77257 8.91768 5.6114 9.54803C4.41705 10.2116 3.48812 11.0741 2.82459 12.0694C2.19424 13.0647 1.72977 14.2259 1.43118 15.5529C1.16577 16.8136 0.999893 18.2734 0.93354 19.899C0.900364 21.4583 0.867188 23.2166 0.867188 25.1077C0.867188 26.9987 0.900364 28.7571 0.93354 30.3164C0.966716 31.9088 1.1326 33.3686 1.43118 34.6624C1.72977 35.9895 2.19424 37.1507 2.82459 38.1459C3.48812 39.1744 4.41705 40.0038 5.6114 40.6673C6.77257 41.2977 8.23233 41.7953 9.99067 42.0939C11.7158 42.3925 13.8391 42.5584 16.2942 42.5584H28.3372C30.8254 42.5584 32.9487 42.3925 34.6407 42.0939C36.399 41.7953 37.8588 41.2977 39.0199 40.6673C40.2143 40.0038 41.1432 39.1412 41.7736 38.1459C42.4039 37.1507 42.8684 35.9895 43.167 34.6624C43.4324 33.4017 43.5983 31.942 43.6646 30.3495C43.6978 28.7902 43.731 27.0319 43.731 25.1409C43.731 23.2498 43.6978 21.5246 43.6646 19.9322C43.6314 18.3066 43.4656 16.8468 43.167 15.5529ZM28.3372 37.7147H16.2942C14.5358 37.7147 13.0429 37.6483 11.8485 37.5488C10.7205 37.4492 9.75844 37.2502 9.02856 36.9516C8.36503 36.6862 7.86739 36.3212 7.53562 35.8236C7.17068 35.326 6.90527 34.5961 6.73939 33.7335C6.54034 32.8046 6.44081 31.6102 6.40763 30.2168C6.37445 28.7902 6.34128 27.0651 6.34128 25.0745C6.34128 23.0508 6.34128 21.3256 6.37445 19.9322C6.40763 18.5388 6.50716 17.3444 6.70622 16.4155C6.8721 15.5198 7.13751 14.823 7.53562 14.3254C7.90056 13.8278 8.39821 13.4628 9.06173 13.1974C9.79161 12.8988 10.7205 12.6998 11.8817 12.6002C13.0761 12.5007 14.569 12.4344 16.3273 12.4344H28.3372C30.0955 12.4344 31.5884 12.5007 32.7828 12.6002C33.9108 12.6998 34.8729 12.8988 35.5696 13.1974C36.2331 13.4628 36.7308 13.8278 37.0625 14.3254C37.4275 14.823 37.6929 15.5529 37.8919 16.4155C38.091 17.3444 38.1905 18.5388 38.2237 19.9322C38.2569 21.3588 38.2901 23.0839 38.2901 25.0745C38.2901 27.0651 38.2569 28.7902 38.2237 30.2168C38.1905 31.6102 38.091 32.8046 37.8919 33.7335C37.7261 34.5961 37.4607 35.326 37.0625 35.8236C36.6976 36.3212 36.2 36.6862 35.5364 36.9516C34.8065 37.2502 33.8776 37.4492 32.7164 37.5488C31.5553 37.6815 30.0955 37.7147 28.3372 37.7147Z" fill="black"/>
<path d="M68.9768 26.3021C68.811 25.5391 68.5124 24.8424 68.1143 24.2452C67.7161 23.648 67.119 23.1504 66.3891 22.7523C65.6924 22.3873 64.7966 22.0888 63.735 21.9229C62.7065 21.757 61.4458 21.6575 59.9861 21.6575H45.1562V41.8618H59.9861C61.479 41.8618 62.7397 41.7623 63.735 41.5964C64.7966 41.4305 65.6924 41.1319 66.3891 40.767C67.119 40.3689 67.683 39.8712 68.1143 39.2741C68.5124 38.7101 68.7778 38.0134 68.9768 37.2171C69.1427 36.4872 69.2422 35.6247 69.2754 34.7289C69.3086 33.8331 69.3086 32.8379 69.3086 31.7762C69.3086 30.6814 69.3086 29.6861 69.2754 28.8235C69.2422 27.8614 69.1427 27.032 68.9768 26.3021ZM60.0192 38.6437H48.8056V24.8756H60.0192C61.0477 24.8756 61.9435 24.9087 62.6402 24.9751C63.3037 25.0414 63.8345 25.141 64.2658 25.2737C64.6307 25.4064 64.8962 25.6054 65.062 25.8377C65.2611 26.1031 65.427 26.468 65.5265 26.9325C65.626 27.4633 65.6924 28.0937 65.7256 28.8567C65.7587 29.6529 65.7587 30.6151 65.7587 31.743C65.7587 32.871 65.7587 33.8331 65.7256 34.6294C65.6924 35.3924 65.626 36.056 65.5265 36.5536C65.427 37.0181 65.2611 37.383 65.062 37.6484C64.863 37.8806 64.5976 38.0797 64.2658 38.2124C63.8677 38.3783 63.3037 38.4778 62.6402 38.511C61.9103 38.6105 61.0145 38.6437 60.0192 38.6437Z" fill="black"/>
<path d="M128.335 26.0367C128.169 25.2736 127.903 24.6433 127.505 24.0793C127.107 23.5153 126.576 23.0176 125.88 22.6527C125.216 22.2878 124.32 22.0224 123.325 21.8565C122.33 21.6906 121.069 21.5911 119.609 21.5911H105.078V41.2646H119.609C121.069 41.2646 122.297 41.165 123.325 40.9992C124.354 40.8333 125.216 40.5679 125.88 40.2029C126.576 39.838 127.14 39.3404 127.505 38.7764C127.87 38.2124 128.169 37.5488 128.335 36.819C128.501 36.0891 128.6 35.2597 128.633 34.3639C128.666 33.5013 128.666 32.506 128.666 31.4112C128.666 30.3496 128.666 29.3543 128.633 28.4585C128.6 27.596 128.501 26.7666 128.335 26.0367ZM119.609 38.4446H108.296V24.411H119.609C120.638 24.411 121.5 24.4442 122.23 24.5106C122.894 24.5769 123.458 24.6765 123.889 24.8423C124.287 24.975 124.586 25.2073 124.785 25.4727C124.984 25.7713 125.15 26.1362 125.249 26.6339C125.349 27.1647 125.415 27.8282 125.448 28.5912C125.482 29.3875 125.482 30.3496 125.482 31.4776C125.482 32.6056 125.482 33.5677 125.448 34.3639C125.415 35.127 125.349 35.7905 125.249 36.3213C125.15 36.819 124.984 37.1839 124.785 37.4825C124.586 37.7479 124.287 37.9469 123.889 38.1128C123.458 38.2787 122.894 38.3782 122.23 38.4446C121.5 38.4114 120.638 38.4446 119.609 38.4446Z" fill="black"/>
<path d="M147.337 30.3164C147.205 29.7524 147.006 29.2547 146.74 28.8566C146.475 28.4253 146.077 28.0604 145.546 27.7618C145.048 27.4964 144.451 27.2973 143.721 27.1646C143.024 27.0319 142.129 26.9656 141.1 26.9656H136.157C135.128 26.9656 134.233 27.0319 133.536 27.1646C132.806 27.2973 132.176 27.4964 131.711 27.7618C131.214 28.0604 130.815 28.3922 130.517 28.8566C130.251 29.2879 130.052 29.7856 129.92 30.3164C129.787 30.8472 129.721 31.4444 129.721 32.1079C129.688 32.7382 129.688 33.4681 129.688 34.2312C129.688 34.9942 129.688 35.7241 129.721 36.3545C129.754 37.018 129.82 37.6151 129.92 38.146C130.052 38.71 130.251 39.2076 130.517 39.6057C130.782 40.037 131.18 40.4019 131.711 40.7005C132.209 40.9659 132.806 41.165 133.536 41.2977C134.233 41.4304 135.128 41.4968 136.157 41.4968H141.1C142.129 41.4968 143.024 41.4304 143.721 41.2977C144.451 41.165 145.081 40.9659 145.546 40.7005C146.043 40.4019 146.442 40.037 146.74 39.6057C147.006 39.1744 147.205 38.6768 147.337 38.146C147.47 37.6151 147.536 37.018 147.536 36.3545C147.57 35.7241 147.57 34.9942 147.57 34.198C147.57 33.4349 147.57 32.7051 147.536 32.0415C147.503 31.4444 147.437 30.8472 147.337 30.3164ZM141.1 39.3071H136.157C135.427 39.3071 134.83 39.274 134.332 39.2408C133.868 39.2076 133.503 39.1081 133.204 39.0085C132.939 38.909 132.773 38.7763 132.64 38.5773C132.507 38.3782 132.408 38.1128 132.342 37.781C132.275 37.4161 132.209 36.9184 132.209 36.3545C132.209 35.7573 132.176 35.0606 132.176 34.2312C132.176 33.4018 132.176 32.7051 132.209 32.1079C132.209 31.5439 132.275 31.0794 132.342 30.6813C132.408 30.3496 132.507 30.051 132.64 29.8851C132.773 29.7192 132.939 29.5533 133.204 29.4538C133.503 29.3543 133.868 29.2547 134.332 29.2216C134.83 29.1884 135.427 29.1552 136.157 29.1552H141.1C141.83 29.1552 142.427 29.1884 142.925 29.2216C143.389 29.2547 143.754 29.3543 144.02 29.4538C144.285 29.5533 144.451 29.686 144.584 29.8851C144.716 30.0841 144.816 30.3496 144.882 30.6813C144.949 31.0463 145.015 31.5439 145.015 32.1079C145.015 32.7051 145.048 33.4018 145.048 34.2312C145.048 35.0606 145.048 35.7573 145.015 36.3545C145.015 36.9184 144.949 37.3829 144.882 37.781C144.816 38.1128 144.716 38.4114 144.584 38.5773C144.451 38.7431 144.252 38.909 144.02 39.0085C143.721 39.1081 143.356 39.2076 142.892 39.2408C142.427 39.274 141.797 39.3071 141.1 39.3071Z" fill="black"/>
<path d="M103.871 29.1553C103.805 28.6245 103.672 28.0937 103.44 27.5629L97.1693 12.0364C95.7759 8.58606 91.8611 6.92725 88.4107 8.32065L73.4482 14.3587C69.6993 15.8848 67.9078 20.1314 69.4007 23.8803L73.2823 33.4682L75.472 38.876C76.1355 40.5348 77.4294 41.8618 79.0882 42.5585C79.5527 42.7576 80.0171 42.2599 79.8181 41.7955L76.6332 33.8663C76.4673 33.4682 76.4009 33.0701 76.3677 32.672C76.3014 31.2122 77.164 29.7857 78.5906 29.1885L94.1171 22.9182C94.5484 22.7523 95.0128 22.6528 95.4441 22.6528C96.8707 22.6528 98.1977 23.4822 98.7617 24.8756L100.785 29.852L102.113 33.1365C102.278 33.6009 102.909 33.6341 103.141 33.2028C103.241 33.0369 103.34 32.8379 103.406 32.6388C103.904 31.5772 104.037 30.3497 103.871 29.1553ZM92.9559 20.0319L77.4294 26.3022C76.5668 26.6339 75.8369 27.1316 75.2397 27.7619C74.9412 28.0605 74.4767 27.9278 74.3108 27.5629L72.1212 22.1551C71.3913 20.3304 72.2539 18.2403 74.1118 17.5105L89.6383 11.2402C90.0695 11.0743 90.534 10.9747 90.9653 10.9747C92.3919 10.9747 93.7189 11.8042 94.2829 13.1976L96.5389 18.7712C96.7048 19.1693 96.4062 19.6006 95.9749 19.5674C94.9465 19.501 93.918 19.6337 92.9559 20.0319Z" fill="#EF3837"/>
<path d="M85.9577 8.08843L82.6733 2.81341C81.2799 0.557423 78.1945 -0.271983 75.5404 0.856009C72.8531 1.984 71.327 4.7708 71.9905 7.35855L73.5166 13.3966C73.6825 14.0601 74.2797 14.4583 74.9432 14.4251C75.0096 14.4251 75.0759 14.3919 75.1423 14.3919C75.8721 14.1929 76.3034 13.463 76.1376 12.7331L74.6114 6.69503C74.2797 5.43433 75.1754 3.97457 76.602 3.34423C78.0286 2.74705 79.6874 3.11199 80.3841 4.23998L83.6686 9.51501C84.0667 10.1454 84.8961 10.3444 85.5265 9.9463C86.1568 9.58136 86.3559 8.71877 85.9577 8.08843Z" fill="black"/>
<path d="M155.401 32.8045C157.027 32.7714 158.619 32.3401 160.212 32.0415C163.629 31.378 167.046 30.6813 170.496 30.3163C173.018 30.0509 175.572 29.885 178.061 30.7144C178.79 30.9467 179.487 31.2784 180.151 31.6434C180.482 31.8424 180.549 32.0415 180.35 32.3401C180.35 32.3401 180.317 32.3732 180.317 32.4064C180.018 32.8377 179.885 33.4681 179.454 33.7003C178.989 33.9325 178.525 33.4349 178.061 33.269C176.136 32.6387 174.179 32.6718 172.222 32.9372C167.444 33.5676 162.799 34.7619 158.122 35.7572C156.297 36.1553 154.472 36.3212 152.647 35.724C150.491 34.9942 149.164 33.1031 149.064 30.6149C148.965 28.3258 149.529 26.1693 150.259 24.046C151.685 19.8326 153.775 15.9178 155.832 12.003C155.998 11.7045 156.131 11.4059 156.264 11.1073C156.463 10.6428 156.33 10.5101 155.799 10.6096C155.103 10.7423 154.439 10.9082 153.775 11.1073C151.42 11.8372 149.23 12.9652 147.074 14.1263C146.41 14.4913 146.41 14.4581 146.012 13.8277C145.813 13.5291 145.88 13.3633 146.178 13.1642C148.832 11.3727 151.519 9.58118 154.472 8.2873C155.302 7.92237 156.164 7.62378 157.093 7.62378C158.752 7.65696 159.847 8.68542 159.814 10.3774C159.814 11.6381 159.283 12.7661 158.719 13.8609C156.695 17.8089 154.572 21.7569 153.211 26.0034C152.78 27.3636 152.415 28.7239 152.448 30.1836C152.482 32.0747 153.178 32.8045 155.036 32.8377C155.169 32.8045 155.268 32.8045 155.401 32.8045Z" fill="#EF3837"/>
<path d="M175.808 37.4491C175.808 39.6719 174.05 41.4302 171.86 41.4634C169.604 41.4634 167.812 39.6719 167.812 37.4491C167.812 35.2595 169.637 33.4016 171.827 33.4348C174.083 33.4679 175.808 35.2263 175.808 37.4491ZM173.784 37.4491C173.784 36.3543 172.888 35.4253 171.827 35.4253C170.732 35.4253 169.836 36.3543 169.836 37.4491C169.836 38.5771 170.699 39.4397 171.827 39.4397C172.922 39.4728 173.784 38.6103 173.784 37.4491Z" fill="#EF3837"/>
<path d="M178.987 30.3495C176.167 29.321 173.314 29.6528 170.461 29.9846C166.612 30.4159 162.797 31.1789 159.015 32.1078C157.688 32.4396 156.328 32.4728 154.968 32.3733C153.242 32.2405 152.513 31.2453 152.712 29.4869C152.944 27.5627 153.574 25.738 154.304 23.9797C155.532 20.9606 157.058 18.0743 158.683 15.2543C159.513 13.7946 160.209 12.3016 160.74 10.6428C160.807 11.0741 160.773 11.1736 160.574 11.7708C159.845 13.8609 158.816 15.8183 157.788 17.8089C155.963 21.3256 154.271 24.9086 153.441 28.8234C153.408 29.0225 153.375 29.2215 153.375 29.3874C153.242 31.2784 153.607 31.6766 155.532 31.7761C157.257 31.8756 158.882 31.4775 160.541 31.1126C164.92 30.1504 169.3 29.4206 173.812 29.3542C175.139 29.321 176.466 29.4537 177.727 29.7855C178.191 29.885 178.622 30.0509 178.987 30.3495Z" fill="#EF3837"/>
<path d="M163.099 38.9089C163.099 40.6009 161.738 41.9611 160.08 41.9279C158.388 41.9279 157.094 40.6009 157.094 38.9089C157.094 37.2169 158.421 35.8899 160.113 35.8567C161.738 35.8567 163.099 37.2169 163.099 38.9089ZM158.62 38.9089C158.62 39.7383 159.25 40.4018 160.08 40.4018C160.909 40.4018 161.606 39.7051 161.606 38.9089C161.606 38.1458 160.876 37.416 160.113 37.416C159.283 37.3828 158.62 38.0463 158.62 38.9089Z" fill="#EF3837"/>
</svg>
