<svg width="394" height="394" viewBox="0 0 394 394" fill="none" xmlns="http://www.w3.org/2000/svg">
<path d="M196.996 336.917C281.377 336.917 349.781 332.924 349.781 327.997C349.781 323.071 281.377 319.077 196.996 319.077C112.615 319.077 44.2109 323.071 44.2109 327.997C44.2109 332.924 112.615 336.917 196.996 336.917Z" fill="#F4F6F8"/>
<path d="M205.199 288.014H104.674C103.058 287.991 101.509 287.358 100.34 286.241C99.1712 285.125 98.4674 283.607 98.3701 281.994L89.3554 107.412C89.3054 106.636 89.4164 105.857 89.6814 105.126C89.9463 104.394 90.3596 103.725 90.8952 103.16C91.4308 102.596 92.0773 102.148 92.7941 101.845C93.5108 101.542 94.2824 101.391 95.0605 101.4H195.586C197.201 101.421 198.749 102.052 199.919 103.168C201.088 104.283 201.792 105.799 201.89 107.412L210.889 281.994C210.938 282.769 210.828 283.547 210.564 284.278C210.3 285.009 209.888 285.678 209.354 286.242C208.821 286.807 208.176 287.256 207.461 287.561C206.746 287.866 205.976 288.02 205.199 288.014Z" fill="#E41B10"/>
<path opacity="0.8" d="M205.199 288.014H104.674C103.058 287.991 101.509 287.358 100.34 286.241C99.1712 285.125 98.4674 283.607 98.3701 281.994L89.3554 107.412C89.3054 106.636 89.4164 105.857 89.6814 105.126C89.9463 104.394 90.3596 103.725 90.8952 103.16C91.4308 102.596 92.0773 102.148 92.7941 101.845C93.5108 101.542 94.2824 101.391 95.0605 101.4H195.586C197.201 101.421 198.749 102.052 199.919 103.168C201.088 104.283 201.792 105.799 201.89 107.412L210.889 281.994C210.938 282.769 210.828 283.547 210.564 284.278C210.3 285.009 209.888 285.678 209.354 286.242C208.821 286.807 208.176 287.256 207.461 287.561C206.746 287.866 205.976 288.02 205.199 288.014Z" fill="white"/>
<path d="M185.673 95.7104H174.555V96.4984H185.673V95.7104Z" fill="#E41B10"/>
<path d="M170.691 95.7104H166.617V96.4984H170.691V95.7104Z" fill="#E41B10"/>
<path d="M209.531 276.935H113.395C111.846 276.92 110.361 276.319 109.239 275.253C108.116 274.187 107.438 272.735 107.343 271.19L98.7377 104.213C98.6899 103.47 98.7961 102.725 99.0498 102.025C99.3035 101.324 99.6991 100.684 100.212 100.144C100.725 99.6038 101.343 99.1755 102.029 98.8858C102.715 98.5961 103.454 98.4513 104.199 98.4604H200.335C201.883 98.4775 203.367 99.0804 204.488 100.148C205.61 101.215 206.285 102.668 206.379 104.213L214.983 271.19C215.031 271.932 214.925 272.676 214.672 273.376C214.419 274.075 214.024 274.714 213.512 275.254C213 275.793 212.382 276.221 211.697 276.51C211.012 276.799 210.274 276.944 209.531 276.935Z" fill="#E41B10"/>
<path d="M209.532 273.097H113.396C112.832 273.078 112.295 272.852 111.887 272.463C111.478 272.073 111.228 271.548 111.181 270.985L102.569 104.016C102.549 103.794 102.577 103.57 102.65 103.36C102.724 103.149 102.841 102.957 102.994 102.795C103.148 102.633 103.334 102.506 103.541 102.422C103.747 102.338 103.969 102.298 104.192 102.306H200.328C200.89 102.327 201.425 102.554 201.832 102.943C202.239 103.332 202.488 103.857 202.534 104.418L211.187 271.387C211.206 271.608 211.178 271.831 211.104 272.041C211.031 272.251 210.914 272.443 210.762 272.604C210.609 272.766 210.424 272.893 210.219 272.978C210.014 273.063 209.793 273.104 209.571 273.097H209.532ZM104.192 102.503C103.996 102.497 103.801 102.531 103.619 102.605C103.437 102.678 103.273 102.788 103.136 102.929C103.004 103.074 102.904 103.245 102.84 103.43C102.776 103.616 102.751 103.812 102.766 104.008L111.371 270.977C111.414 271.489 111.644 271.967 112.015 272.321C112.387 272.675 112.875 272.881 113.388 272.9H209.524C209.719 272.908 209.913 272.874 210.094 272.801C210.275 272.727 210.438 272.616 210.572 272.475C210.707 272.331 210.809 272.161 210.873 271.975C210.937 271.789 210.961 271.591 210.942 271.395L202.345 104.426C202.303 103.915 202.076 103.437 201.705 103.083C201.335 102.729 200.848 102.523 200.336 102.503H104.192Z" fill="white"/>
<path opacity="0.3" d="M175.902 163.16C186.837 151.939 186.125 133.511 174.312 122C162.499 110.488 144.059 110.253 133.125 121.473C122.19 132.694 122.902 151.122 134.715 162.633C146.528 174.145 164.968 174.38 175.902 163.16Z" fill="white"/>
<path d="M178.089 142.321C178.31 146.193 177.531 150.057 175.828 153.542C173.984 157.279 171.121 160.42 167.571 162.602C164.02 164.784 159.925 165.918 155.757 165.874C151.438 165.835 147.203 164.679 143.464 162.518C139.724 160.357 136.608 157.264 134.418 153.542C132.377 150.138 131.203 146.285 130.998 142.321C130.804 139.281 131.239 136.233 132.277 133.37C133.314 130.506 134.932 127.887 137.028 125.676C139.124 123.466 141.654 121.713 144.459 120.525C147.264 119.338 150.284 118.742 153.33 118.775C159.67 118.841 165.749 121.307 170.343 125.676C174.937 130.045 177.705 135.993 178.089 142.321Z" fill="white"/>
<path d="M175.807 153.542C173.963 157.279 171.101 160.42 167.55 162.602C163.999 164.784 159.904 165.918 155.737 165.874C151.418 165.835 147.183 164.679 143.443 162.518C139.704 160.357 136.587 157.264 134.398 153.542C140.386 149.406 147.498 147.206 154.775 147.238C162.247 147.266 169.551 149.455 175.807 153.542Z" fill="#E41B10"/>
<path d="M161.814 141.773C165.753 137.731 165.495 131.09 161.238 126.941C156.98 122.792 150.335 122.706 146.396 126.748C142.456 130.791 142.714 137.431 146.972 141.58C151.229 145.729 157.874 145.816 161.814 141.773Z" fill="#E41B10"/>
<path d="M195.746 211.972H120.469C119.813 211.965 119.184 211.71 118.709 211.258C118.234 210.807 117.948 210.192 117.908 209.537L117.34 198.505C117.321 198.191 117.366 197.877 117.474 197.581C117.581 197.286 117.749 197.016 117.965 196.788C118.182 196.56 118.444 196.38 118.733 196.257C119.023 196.135 119.335 196.074 119.649 196.078H194.927C195.581 196.085 196.209 196.339 196.684 196.789C197.159 197.239 197.446 197.852 197.488 198.505L198.055 209.537C198.076 209.852 198.031 210.167 197.924 210.463C197.817 210.76 197.65 211.031 197.433 211.259C197.216 211.488 196.955 211.669 196.664 211.792C196.374 211.915 196.061 211.976 195.746 211.972Z" fill="white"/>
<path opacity="0.3" d="M172.696 189.987H141.254C140.596 189.982 139.964 189.727 139.487 189.273C139.01 188.819 138.724 188.201 138.686 187.544L138.567 185.18C138.547 184.866 138.591 184.55 138.698 184.254C138.805 183.957 138.973 183.686 139.189 183.458C139.406 183.229 139.668 183.048 139.958 182.925C140.249 182.802 140.561 182.741 140.876 182.745H172.309C172.965 182.752 173.594 183.007 174.069 183.459C174.544 183.91 174.831 184.526 174.87 185.18L174.997 187.544C175.016 187.858 174.971 188.172 174.864 188.468C174.757 188.764 174.591 189.035 174.375 189.264C174.159 189.492 173.899 189.675 173.61 189.799C173.321 189.924 173.01 189.987 172.696 189.987Z" fill="black"/>
<path opacity="0.3" d="M184.394 265.012H137.295C136.18 264.999 135.111 264.564 134.303 263.795C133.495 263.026 133.007 261.981 132.937 260.867L132.662 255.43C132.634 254.896 132.715 254.361 132.901 253.859C133.086 253.358 133.372 252.899 133.741 252.511C134.109 252.123 134.553 251.814 135.045 251.604C135.537 251.393 136.066 251.285 136.602 251.285H183.685C184.8 251.299 185.869 251.734 186.677 252.503C187.485 253.271 187.973 254.317 188.042 255.43L188.318 260.867C188.346 261.4 188.265 261.934 188.08 262.434C187.896 262.935 187.611 263.393 187.244 263.781C186.877 264.169 186.436 264.478 185.946 264.689C185.455 264.901 184.928 265.011 184.394 265.012Z" fill="black"/>
<path d="M197.121 238.654H121.836C121.181 238.645 120.553 238.39 120.078 237.938C119.603 237.487 119.316 236.873 119.275 236.219L118.707 225.187C118.688 224.873 118.733 224.558 118.841 224.262C118.948 223.966 119.116 223.695 119.332 223.467C119.549 223.239 119.81 223.057 120.1 222.934C120.39 222.811 120.702 222.749 121.016 222.752H196.294C196.95 222.759 197.578 223.014 198.054 223.465C198.529 223.917 198.815 224.532 198.855 225.187L199.43 236.219C199.448 236.533 199.402 236.847 199.294 237.142C199.186 237.438 199.019 237.708 198.803 237.936C198.586 238.164 198.326 238.346 198.036 238.469C197.747 238.592 197.436 238.655 197.121 238.654Z" fill="white"/>
<path d="M130.02 204.021C130.042 204.369 129.992 204.718 129.872 205.046C129.753 205.374 129.568 205.674 129.327 205.927C129.087 206.18 128.797 206.38 128.476 206.516C128.154 206.652 127.808 206.72 127.459 206.716C126.735 206.707 126.04 206.425 125.515 205.925C124.99 205.425 124.674 204.745 124.63 204.021C124.608 203.673 124.657 203.324 124.775 202.997C124.894 202.669 125.078 202.369 125.318 202.116C125.558 201.863 125.847 201.662 126.168 201.526C126.489 201.39 126.835 201.322 127.184 201.326C127.909 201.335 128.605 201.617 129.131 202.117C129.657 202.617 129.975 203.297 130.02 204.021Z" fill="#263238"/>
<path d="M138.317 204.021C138.34 204.369 138.291 204.718 138.172 205.046C138.054 205.373 137.869 205.673 137.629 205.926C137.39 206.179 137.1 206.38 136.779 206.516C136.458 206.652 136.113 206.72 135.764 206.716C135.039 206.709 134.343 206.427 133.818 205.927C133.293 205.426 132.977 204.745 132.935 204.021C132.912 203.673 132.962 203.324 133.08 202.997C133.198 202.669 133.383 202.369 133.623 202.116C133.863 201.863 134.152 201.662 134.473 201.526C134.794 201.39 135.14 201.322 135.488 201.326C136.214 201.333 136.909 201.615 137.435 202.115C137.96 202.616 138.275 203.297 138.317 204.021Z" fill="#263238"/>
<path d="M146.567 204.021C146.59 204.369 146.54 204.718 146.422 205.046C146.304 205.373 146.119 205.673 145.879 205.926C145.639 206.179 145.35 206.38 145.029 206.516C144.708 206.652 144.362 206.72 144.014 206.716C143.288 206.708 142.592 206.425 142.066 205.925C141.54 205.426 141.222 204.745 141.177 204.021C141.155 203.673 141.205 203.324 141.325 202.996C141.444 202.668 141.63 202.368 141.87 202.115C142.11 201.863 142.4 201.662 142.722 201.526C143.043 201.39 143.389 201.322 143.738 201.326C144.463 201.335 145.157 201.618 145.682 202.117C146.207 202.617 146.523 203.298 146.567 204.021Z" fill="#263238"/>
<path d="M154.887 204.021C154.909 204.369 154.859 204.717 154.74 205.044C154.621 205.372 154.436 205.671 154.197 205.924C153.957 206.177 153.668 206.377 153.348 206.514C153.027 206.65 152.682 206.719 152.334 206.716C151.608 206.708 150.913 206.425 150.387 205.925C149.861 205.426 149.543 204.745 149.497 204.021C149.476 203.674 149.526 203.325 149.644 202.998C149.763 202.671 149.948 202.371 150.188 202.118C150.427 201.866 150.716 201.665 151.037 201.528C151.357 201.392 151.702 201.323 152.05 201.326C152.776 201.335 153.471 201.617 153.998 202.117C154.524 202.617 154.841 203.297 154.887 204.021Z" fill="#263238"/>
<path d="M131.41 230.687C131.433 231.035 131.384 231.384 131.266 231.711C131.147 232.039 130.962 232.339 130.723 232.592C130.483 232.845 130.193 233.046 129.872 233.182C129.551 233.318 129.206 233.386 128.857 233.382C128.132 233.373 127.436 233.091 126.91 232.591C126.384 232.091 126.066 231.411 126.02 230.687C125.999 230.339 126.049 229.99 126.168 229.662C126.288 229.334 126.473 229.034 126.714 228.781C126.954 228.528 127.244 228.328 127.565 228.192C127.887 228.056 128.233 227.988 128.581 227.992C129.306 228.001 130.001 228.283 130.526 228.783C131.051 229.283 131.367 229.963 131.41 230.687Z" fill="#263238"/>
<path d="M139.692 230.687C139.714 231.035 139.664 231.383 139.545 231.71C139.426 232.038 139.241 232.337 139.002 232.59C138.762 232.843 138.473 233.043 138.153 233.18C137.832 233.316 137.487 233.385 137.139 233.382C136.413 233.373 135.718 233.091 135.192 232.591C134.666 232.091 134.348 231.411 134.302 230.687C134.279 230.339 134.329 229.99 134.447 229.663C134.565 229.335 134.75 229.035 134.99 228.782C135.23 228.529 135.519 228.328 135.84 228.192C136.161 228.056 136.507 227.988 136.855 227.992C137.581 228.001 138.276 228.283 138.803 228.783C139.329 229.283 139.646 229.963 139.692 230.687Z" fill="#263238"/>
<path d="M147.973 230.687C147.995 231.035 147.945 231.384 147.825 231.712C147.706 232.04 147.521 232.34 147.28 232.593C147.04 232.846 146.75 233.046 146.429 233.182C146.107 233.318 145.761 233.386 145.412 233.382C144.687 233.375 143.991 233.093 143.466 232.593C142.941 232.092 142.625 231.411 142.583 230.687C142.561 230.339 142.61 229.99 142.728 229.663C142.847 229.335 143.031 229.035 143.271 228.782C143.511 228.529 143.8 228.328 144.121 228.192C144.442 228.056 144.788 227.988 145.137 227.992C145.862 228.001 146.558 228.283 147.084 228.783C147.61 229.283 147.928 229.963 147.973 230.687Z" fill="#263238"/>
<path d="M156.254 230.687C156.277 231.035 156.228 231.384 156.109 231.711C155.991 232.039 155.806 232.339 155.566 232.592C155.327 232.845 155.037 233.046 154.716 233.182C154.395 233.318 154.05 233.386 153.701 233.382C152.975 233.373 152.28 233.091 151.754 232.591C151.228 232.091 150.91 231.411 150.864 230.687C150.843 230.339 150.893 229.99 151.012 229.662C151.131 229.334 151.317 229.034 151.557 228.781C151.798 228.528 152.088 228.328 152.409 228.192C152.73 228.056 153.076 227.988 153.425 227.992C154.151 227.999 154.846 228.281 155.372 228.781C155.897 229.282 156.212 229.963 156.254 230.687Z" fill="#263238"/>
<path d="M164.535 230.687C164.558 231.035 164.509 231.384 164.391 231.711C164.272 232.039 164.087 232.339 163.848 232.592C163.608 232.845 163.318 233.046 162.997 233.182C162.676 233.318 162.331 233.386 161.982 233.382C161.257 233.373 160.561 233.091 160.035 232.591C159.509 232.091 159.191 231.411 159.146 230.687C159.124 230.339 159.174 229.991 159.293 229.664C159.412 229.336 159.596 229.037 159.836 228.784C160.075 228.531 160.364 228.331 160.685 228.194C161.005 228.058 161.35 227.989 161.699 227.992C162.424 228.001 163.12 228.283 163.646 228.783C164.172 229.283 164.49 229.963 164.535 230.687Z" fill="#263238"/>
<path d="M172.817 230.687C172.839 231.035 172.789 231.384 172.669 231.712C172.55 232.04 172.364 232.34 172.124 232.593C171.884 232.846 171.594 233.046 171.272 233.182C170.951 233.318 170.605 233.386 170.256 233.382C169.531 233.373 168.837 233.091 168.312 232.591C167.787 232.091 167.471 231.411 167.427 230.687C167.404 230.339 167.454 229.99 167.572 229.663C167.69 229.335 167.875 229.035 168.115 228.782C168.355 228.529 168.644 228.328 168.965 228.192C169.286 228.056 169.632 227.988 169.98 227.992C170.706 228.001 171.402 228.283 171.928 228.783C172.454 229.283 172.772 229.963 172.817 230.687Z" fill="#263238"/>
<path d="M262.404 139.177C262.601 139.476 262.703 139.634 262.829 139.846L263.184 140.43C263.412 140.824 263.617 141.217 263.814 141.604C264.208 142.392 264.602 143.18 264.917 143.968C265.578 145.533 266.146 147.135 266.619 148.767C267.573 151.989 268.202 155.3 268.495 158.648L268.55 159.271C268.557 159.397 268.557 159.523 268.55 159.649V160.066C268.563 160.614 268.531 161.163 268.455 161.706C268.304 162.712 268.04 163.698 267.667 164.645C266.975 166.336 266.058 167.926 264.941 169.373C262.857 172.041 260.384 174.381 257.605 176.315L255.43 173.77C257.409 171.535 259.161 169.109 260.662 166.528C261.337 165.357 261.867 164.108 262.238 162.809C262.388 162.258 262.476 161.693 262.498 161.122C262.522 160.879 262.522 160.633 262.498 160.39V160.224C262.506 160.151 262.506 160.077 262.498 160.003L262.404 159.452C261.897 156.515 261.18 153.618 260.26 150.784C259.803 149.373 259.244 148.01 258.684 146.678C258.408 146.009 258.093 145.355 257.778 144.724L257.289 143.794L257.045 143.361L256.84 143.014L262.404 139.177Z" fill="#FF8B7B"/>
<path d="M255.07 176.331L257.923 182.359L260.184 177.261C260.184 177.261 258.175 172.848 255.456 173.258L255.07 176.331Z" fill="#FF8B7B"/>
<path d="M259.971 182.658L262.24 178.939L260.191 177.261L257.93 182.359L259.971 182.658Z" fill="#FF8B7B"/>
<path d="M247.142 321.677C247.732 321.663 248.319 321.583 248.892 321.441C248.921 321.432 248.947 321.416 248.968 321.394C248.988 321.372 249.003 321.344 249.01 321.315C249.015 321.285 249.011 321.253 248.998 321.226C248.986 321.198 248.965 321.174 248.939 321.157C248.711 321.008 246.709 319.715 245.937 320.062C245.851 320.102 245.778 320.164 245.724 320.241C245.67 320.319 245.637 320.409 245.63 320.503C245.606 320.646 245.617 320.792 245.662 320.929C245.707 321.067 245.786 321.191 245.89 321.291C246.247 321.567 246.692 321.704 247.142 321.677ZM248.443 321.212C247.3 321.449 246.433 321.409 246.079 321.102C246.006 321.03 245.953 320.941 245.924 320.844C245.895 320.746 245.892 320.642 245.913 320.543C245.913 320.409 245.992 320.369 246.047 320.346C246.473 320.157 247.631 320.716 248.443 321.212Z" fill="#E41B10"/>
<path d="M248.848 321.441H248.927C248.951 321.425 248.97 321.404 248.984 321.38C248.998 321.355 249.005 321.327 249.006 321.299C249.006 321.22 249.006 319.321 248.281 318.683C248.192 318.603 248.087 318.543 247.972 318.508C247.858 318.473 247.737 318.462 247.619 318.478C247.495 318.479 247.374 318.523 247.278 318.602C247.182 318.68 247.116 318.79 247.091 318.911C246.941 319.66 248.139 321.078 248.769 321.441H248.848ZM247.721 318.77C247.785 318.768 247.849 318.779 247.908 318.802C247.968 318.825 248.022 318.859 248.068 318.904C248.484 319.516 248.699 320.243 248.683 320.984C248.052 320.48 247.304 319.408 247.398 318.959C247.398 318.888 247.453 318.793 247.65 318.77H247.721Z" fill="#E41B10"/>
<path d="M239.702 318.462C239.72 318.439 239.732 318.412 239.736 318.382C239.741 318.353 239.737 318.323 239.726 318.296C239.714 318.268 239.696 318.245 239.672 318.227C239.649 318.209 239.621 318.198 239.591 318.194C239.268 318.194 236.439 318.06 235.793 318.754V318.801C235.74 318.869 235.705 318.95 235.693 319.036C235.68 319.122 235.69 319.209 235.722 319.29C235.764 319.425 235.839 319.548 235.939 319.648C236.039 319.748 236.162 319.823 236.297 319.865C237.212 320.149 238.827 319.116 239.709 318.478L239.702 318.462ZM236.03 318.959C236.384 318.58 237.944 318.478 239.111 318.494C237.889 319.329 236.873 319.723 236.361 319.565C236.271 319.538 236.19 319.49 236.124 319.424C236.058 319.358 236.009 319.277 235.982 319.187C235.966 319.157 235.958 319.123 235.958 319.089C235.958 319.054 235.966 319.021 235.982 318.99L236.03 318.959Z" fill="#E41B10"/>
<path d="M239.702 318.462C239.714 318.438 239.72 318.411 239.72 318.384C239.72 318.356 239.714 318.329 239.702 318.305C239.662 318.242 238.78 316.729 237.74 316.414C237.59 316.37 237.434 316.357 237.279 316.376C237.125 316.395 236.976 316.445 236.841 316.524C236.463 316.744 236.439 317.005 236.487 317.17C236.692 317.903 238.701 318.549 239.568 318.541C239.595 318.541 239.622 318.533 239.645 318.519C239.669 318.506 239.688 318.486 239.702 318.462ZM236.873 316.886C236.917 316.843 236.968 316.806 237.023 316.776C237.12 316.714 237.229 316.674 237.344 316.659C237.458 316.644 237.574 316.654 237.684 316.689C238.37 316.871 239.008 317.753 239.3 318.187C238.362 318.084 236.936 317.509 236.818 317.068C236.808 317.034 236.807 316.998 236.817 316.965C236.827 316.931 236.846 316.901 236.873 316.878V316.886Z" fill="#E41B10"/>
<path d="M248.375 116.096C247.587 120.036 245.885 128.554 248.619 131.17C248.619 131.17 247.547 135.11 240.274 135.11C232.268 135.11 236.452 131.17 236.452 131.17C240.818 130.13 240.707 126.884 239.943 123.842L248.375 116.096Z" fill="#FF8B7B"/>
<path d="M235.045 106.861C235.09 106.868 235.135 106.868 235.179 106.861C235.217 106.842 235.25 106.817 235.278 106.785C235.305 106.754 235.326 106.717 235.339 106.678C235.352 106.638 235.357 106.596 235.354 106.555C235.351 106.513 235.34 106.472 235.321 106.435C235.109 105.986 234.792 105.594 234.398 105.292C234.003 104.99 233.541 104.788 233.052 104.702C232.97 104.695 232.888 104.719 232.824 104.771C232.759 104.822 232.717 104.896 232.705 104.977C232.696 105.06 232.72 105.142 232.772 105.207C232.823 105.272 232.898 105.314 232.981 105.324C233.367 105.398 233.73 105.563 234.04 105.806C234.35 106.049 234.597 106.362 234.762 106.719C234.792 106.765 234.834 106.803 234.884 106.828C234.934 106.853 234.99 106.864 235.045 106.861Z" fill="#263238"/>
<path d="M232.653 110.32C232.033 111.47 231.259 112.531 230.352 113.472C230.598 113.697 230.889 113.865 231.206 113.966C231.523 114.066 231.859 114.097 232.189 114.055L232.653 110.32Z" fill="#FF8B7B"/>
<path d="M233.248 109.43C233.184 109.958 232.846 110.352 232.507 110.312C232.168 110.273 231.932 109.808 231.995 109.28C232.058 108.752 232.396 108.358 232.783 108.397C233.169 108.437 233.303 108.902 233.248 109.43Z" fill="#263238"/>
<path d="M232.885 108.445L231.672 107.956C231.672 107.956 232.184 108.996 232.885 108.445Z" fill="#263238"/>
<path d="M246.659 316.965L240.229 318.462L236.32 303.679L242.75 302.182L246.659 316.965Z" fill="#FF8B7B"/>
<path d="M256.525 321.283H249.93L250.442 306.004H257.045L256.525 321.283Z" fill="#FF8B7B"/>
<path d="M249.404 320.519H256.819C256.948 320.518 257.072 320.564 257.169 320.648C257.267 320.732 257.33 320.849 257.347 320.976L258.19 326.839C258.207 326.987 258.192 327.137 258.147 327.279C258.101 327.421 258.026 327.552 257.926 327.663C257.826 327.774 257.704 327.863 257.568 327.923C257.431 327.983 257.284 328.014 257.134 328.013C254.55 327.974 253.305 327.816 250.042 327.816C248.033 327.816 245.102 328.029 242.336 328.029C239.57 328.029 239.412 325.286 240.571 325.042C245.74 323.923 246.559 322.394 248.301 320.929C248.609 320.666 248.999 320.521 249.404 320.519Z" fill="#263238"/>
<path d="M239.661 317.477L246.399 314.38C246.513 314.326 246.643 314.315 246.765 314.35C246.887 314.385 246.992 314.463 247.061 314.57L250.283 319.55C250.359 319.678 250.406 319.82 250.423 319.968C250.44 320.116 250.426 320.265 250.381 320.407C250.336 320.549 250.263 320.68 250.164 320.791C250.066 320.903 249.946 320.993 249.811 321.055C247.447 322.095 246.249 322.481 243.286 323.844C241.466 324.68 237.77 326.602 235.264 327.784C232.758 328.966 231.466 326.516 232.412 325.806C236.643 322.654 237.857 320.393 238.826 318.336C238.99 317.957 239.287 317.652 239.661 317.477Z" fill="#263238"/>
<path opacity="0.2" d="M236.32 303.679L238.416 311.607L244.768 309.802L242.758 302.182L236.32 303.679Z" fill="black"/>
<path opacity="0.2" d="M257.043 306.004H250.44L250.18 313.884H256.783L257.043 306.004Z" fill="black"/>
<path d="M260.043 132.668C262.785 133.274 265.716 143.132 265.716 143.132L257.963 151.383C257.963 151.383 251.525 142.116 252.841 138.712C254.172 135.158 256.773 131.959 260.043 132.668Z" fill="#5C6C75"/>
<path opacity="0.4" d="M255.659 138.948C254.272 137.679 253.334 138.058 252.696 139.066C252.066 141.998 255.801 148.136 257.306 150.461C257.999 147.687 258.795 141.84 255.659 138.948Z" fill="black"/>
<path d="M225.296 132.865C225.296 132.865 222.144 133.968 228.448 172.698H255.24C254.791 161.792 254.775 155.063 259.968 132.668C256.214 131.893 252.408 131.393 248.581 131.17C244.531 130.879 240.465 130.879 236.414 131.17C231.222 131.651 225.296 132.865 225.296 132.865Z" fill="#5C6C75"/>
<path opacity="0.4" d="M225.055 147.726C225.228 149.61 225.457 151.729 225.756 154.125C227.955 152.147 229.751 146.521 229.089 143.243C227.519 144.517 226.157 146.03 225.055 147.726Z" fill="black"/>
<path d="M227.92 141.84C226.474 145.479 224.846 149.042 223.042 152.517C221.259 156.118 219.149 159.547 216.738 162.761L216.234 163.384L215.982 163.691C215.895 163.794 215.824 163.888 215.69 164.03C215.216 164.547 214.688 165.012 214.114 165.417C213.101 166.119 211.991 166.671 210.82 167.056C208.778 167.708 206.658 168.085 204.516 168.175C200.505 168.334 196.49 167.977 192.57 167.111L193.004 163.802C194.816 163.802 196.715 163.802 198.52 163.652C200.332 163.563 202.137 163.363 203.925 163.053C205.586 162.794 207.21 162.339 208.764 161.698C209.391 161.43 209.977 161.074 210.505 160.642C210.707 160.473 210.889 160.283 211.049 160.074C211.049 160.074 211.143 159.948 211.207 159.862L211.388 159.602L211.758 159.081C213.735 156.027 215.497 152.839 217.03 149.539C218.606 146.19 220.182 142.715 221.624 139.295L227.92 141.84Z" fill="#FF8B7B"/>
<path d="M225.297 132.865C222.011 133.653 217.977 142.667 217.977 142.667L224.785 152.675C224.785 152.675 233.855 141.257 232.775 137.774C231.672 134.141 229.308 131.888 225.297 132.865Z" fill="#5C6C75"/>
<path d="M194.896 164.306L189.215 161.682L188.648 167.332C188.648 167.332 193.376 168.727 195.74 167.332L194.896 164.306Z" fill="#FF8B7B"/>
<path d="M185.817 161.115L185.273 165.417L188.646 167.332L189.213 161.682L185.817 161.115Z" fill="#FF8B7B"/>
<path d="M251.224 109.816C250.018 116.254 249.648 119.012 245.96 121.935C240.444 126.332 232.761 123.448 232.02 116.782C231.342 110.777 233.423 101.258 240.097 99.4455C241.567 99.0399 243.117 99.0177 244.598 99.381C246.079 99.7443 247.443 100.481 248.559 101.521C249.674 102.561 250.505 103.869 250.972 105.321C251.438 106.773 251.525 108.321 251.224 109.816Z" fill="#FF8B7B"/>
<path d="M237.079 111.171C236.709 114.457 236.567 122.991 243.785 123.259C252.618 123.582 255.266 116.033 254.478 113.015C259.08 109.272 259.742 102.834 254.573 97.9092C249.403 92.9842 238.025 95.7343 234.873 100.533C230.877 106.482 237.079 111.171 237.079 111.171Z" fill="#263238"/>
<path d="M245.937 99.824C245.512 96.3568 245.843 93.9692 249.089 93.9692C252.336 93.9692 256.764 95.1433 258.388 98.4608C260.011 101.778 260.145 106.971 255.614 106.443C251.083 105.915 246.449 103.969 245.937 99.824Z" fill="#E41B10"/>
<path d="M250.963 98.9884C250.175 94.8592 253.87 83.2284 262.846 82.4404C267.006 82.0858 268.929 86.5616 266.786 87.3023C270.726 87.255 273.247 92.4637 269.575 93.2438C272.475 95.1035 271.758 98.9174 267.621 100.793C264.54 102.211 252.027 104.709 250.963 98.9884Z" fill="#263238"/>
<path d="M260.551 103.425C257.66 103.425 254.641 103 252.766 101.747C252.242 101.43 251.8 100.994 251.478 100.473C251.156 99.9527 250.963 99.3626 250.914 98.7523C250.912 98.7005 250.929 98.6498 250.963 98.6103C250.997 98.5708 251.044 98.5456 251.095 98.5396C251.122 98.5363 251.148 98.5385 251.173 98.546C251.198 98.5535 251.222 98.5662 251.242 98.5833C251.262 98.6003 251.278 98.6214 251.29 98.6451C251.301 98.6688 251.307 98.6946 251.308 98.7209C251.356 99.2716 251.532 99.8035 251.824 100.273C252.116 100.743 252.514 101.137 252.987 101.424C256.556 103.788 264.807 103 267.376 102.212C269.598 101.487 271.103 100.076 271.402 98.4529C271.496 97.8573 271.422 97.2474 271.19 96.691C270.957 96.1345 270.576 95.6533 270.086 95.3008C270.067 95.2832 270.052 95.2619 270.042 95.2382C270.032 95.2145 270.027 95.1889 270.027 95.163C270.027 95.1372 270.032 95.1116 270.042 95.0879C270.052 95.0642 270.067 95.0428 270.086 95.0251C270.123 94.989 270.173 94.9688 270.224 94.9688C270.276 94.9688 270.325 94.989 270.362 95.0251C270.912 95.4265 271.34 95.9728 271.597 96.6031C271.855 97.2335 271.932 97.923 271.82 98.5947C271.497 100.368 269.897 101.881 267.533 102.653C265.252 103.228 262.903 103.488 260.551 103.425Z" fill="#263238"/>
<path d="M235.08 110.32C234.346 111.349 234.044 112.625 234.237 113.874C234.497 115.529 236.104 115.639 237.271 114.583C238.437 113.527 239.453 111.62 238.594 110.249C238.404 109.953 238.14 109.711 237.829 109.545C237.518 109.379 237.17 109.296 236.817 109.303C236.465 109.31 236.12 109.408 235.816 109.586C235.512 109.764 235.259 110.016 235.08 110.32Z" fill="#FF8B7B"/>
<path d="M235.523 172.698C235.523 172.698 239.353 218 243.332 243.531C246.54 264.153 249.077 312.355 249.077 312.355H258.076C258.076 312.355 261.275 265.595 259.652 245.202C255.531 193.588 264.727 189.38 255.263 172.706L235.523 172.698Z" fill="#21313C"/>
<path opacity="0.4" d="M246.854 189.821C243.288 193.564 240.41 197.907 238.352 202.65C239.4 212.831 240.645 224.131 241.968 234.028C247.401 219.965 249.084 204.731 246.854 189.821Z" fill="black"/>
<path d="M229.224 172.414C229.224 172.414 220.911 221.893 219.602 244.193C222.865 264.815 236.213 308.407 236.213 308.407L244.401 305.437C244.401 305.437 239.87 257.905 234.945 244.895C246.032 207.567 254.18 198.127 251.808 172.698C246.127 172.698 229.224 172.414 229.224 172.414Z" fill="#21313C"/>
<path d="M235.121 310.582L246.185 307.58L245.555 303.167L233.711 306.374L235.121 310.582Z" fill="#263238"/>
<path d="M247.836 312.537H259.302L259.901 308.518L247.773 308.108L247.836 312.537Z" fill="#263238"/>
<path d="M255.654 171.122L256.86 173.525C256.954 173.715 256.734 173.904 256.426 173.904H228.311C228.074 173.904 227.869 173.786 227.854 173.628L227.609 171.264C227.609 171.098 227.806 170.957 228.066 170.957H255.213C255.294 170.945 255.377 170.955 255.454 170.984C255.531 171.013 255.6 171.06 255.654 171.122Z" fill="#E41B10"/>
<path opacity="0.5" d="M255.654 171.122L256.86 173.525C256.954 173.715 256.734 173.904 256.426 173.904H228.311C228.074 173.904 227.869 173.786 227.854 173.628L227.609 171.264C227.609 171.098 227.806 170.957 228.066 170.957H255.213C255.294 170.945 255.377 170.955 255.454 170.984C255.531 171.013 255.6 171.06 255.654 171.122Z" fill="black"/>
<path d="M252.006 174.148H252.731C252.88 174.148 252.991 174.069 252.983 173.983L252.636 170.831C252.636 170.736 252.502 170.665 252.36 170.665H251.627C251.486 170.665 251.375 170.736 251.383 170.831L251.722 173.983C251.738 174.085 251.864 174.148 252.006 174.148Z" fill="#E41B10"/>
<path d="M242.254 151.201C242.167 151.2 242.083 151.171 242.014 151.119C241.944 151.066 241.893 150.993 241.868 150.91C239.299 141.407 233.988 133.574 231.412 132.392C231.211 132.269 230.971 132.229 230.742 132.282C230.694 132.307 230.642 132.322 230.588 132.326C230.535 132.33 230.481 132.323 230.43 132.306C230.379 132.288 230.332 132.26 230.293 132.224C230.253 132.188 230.221 132.144 230.199 132.095C230.177 132.046 230.165 131.993 230.164 131.939C230.163 131.885 230.174 131.832 230.194 131.782C230.215 131.732 230.245 131.688 230.284 131.65C230.322 131.613 230.368 131.584 230.419 131.564C230.634 131.485 230.864 131.454 231.093 131.473C231.321 131.492 231.543 131.561 231.743 131.675C234.469 132.967 239.859 140.69 242.554 150.406C244.484 150.406 247.463 150.146 248.188 150.082C249.086 149.011 255.69 140.753 253.223 131.714C253.209 131.665 253.205 131.612 253.211 131.561C253.217 131.51 253.234 131.46 253.26 131.416C253.285 131.371 253.32 131.331 253.361 131.3C253.402 131.269 253.449 131.246 253.499 131.234C253.599 131.207 253.706 131.221 253.796 131.273C253.886 131.324 253.952 131.409 253.98 131.509C256.73 141.564 248.755 150.634 248.669 150.721C248.638 150.759 248.6 150.791 248.556 150.814C248.513 150.837 248.466 150.851 248.417 150.855C248.377 150.855 244.445 151.201 242.254 151.201Z" fill="#E41B10"/>
<path d="M255.312 156.765C251.018 148.719 249.261 148.152 248.496 145.567C249.075 144.122 249.902 142.789 250.939 141.627C250.419 141.478 249.3 141.257 248.575 141.123C248.654 140.768 248.741 140.422 248.819 140.083C248.03 139.995 247.233 140.032 246.455 140.193V139.405C245.454 139.187 244.426 139.121 243.406 139.208C243.495 139.581 243.582 139.959 243.666 140.343C242.878 140.493 241.68 140.737 241.105 140.902C242.223 142.168 243.044 143.668 243.508 145.291C241.192 149.271 232.193 174.849 246.834 176.811C261.475 178.774 259.599 164.818 255.312 156.765Z" fill="#E41B10"/>
<path opacity="0.4" d="M255.312 156.765C251.018 148.719 249.261 148.152 248.496 145.567C249.075 144.122 249.902 142.789 250.939 141.627C250.419 141.478 249.3 141.257 248.575 141.123C248.654 140.768 248.741 140.422 248.819 140.083C248.03 139.995 247.233 140.032 246.455 140.193V139.405C245.454 139.187 244.426 139.121 243.406 139.208C243.495 139.581 243.582 139.959 243.666 140.343C242.878 140.493 241.68 140.737 241.105 140.902C242.223 142.168 243.044 143.668 243.508 145.291C241.192 149.271 232.193 174.849 246.834 176.811C261.475 178.774 259.599 164.818 255.312 156.765Z" fill="white"/>
<path d="M242.91 144.527C242.818 144.933 242.779 145.349 242.791 145.764C242.791 146.056 243.579 146.253 244.454 146.34C245.329 146.426 249.001 146.568 248.883 146.158C248.764 145.748 249.064 145.189 249.08 144.842C249.095 144.496 247.622 144.48 246.385 144.527C245.147 144.574 243.154 144.086 242.91 144.527Z" fill="#E41B10"/>
<path d="M234.388 174.148H235.113C235.255 174.148 235.365 174.069 235.358 173.983L235.019 170.831C235.019 170.736 234.885 170.665 234.735 170.665H234.034C233.892 170.665 233.782 170.736 233.789 170.831L234.128 173.983C234.113 174.085 234.239 174.148 234.388 174.148Z" fill="#E41B10"/>
</svg>
